<?xml version="1.0" encoding="UTF-8" standalone="no"?>
<!DOCTYPE svg PUBLIC "-//W3C//DTD SVG 1.1//EN"
 "http://www.w3.org/Graphics/SVG/1.1/DTD/svg11.dtd">
<!-- Generated by graphviz version 14.1.4 (20260321.0153)
 -->
<!-- Title: SFH_Claim_Graph Pages: 1 -->
<svg width="831pt" height="720pt"
 viewBox="22.00 22.00 810.00 698.00" xmlns="http://www.w3.org/2000/svg" xmlns:xlink="http://www.w3.org/1999/xlink">
<g id="graph0" class="graph" transform="scale(1 1) rotate(0) translate(50.4 669.15)">
<title>SFH_Claim_Graph</title>
<polygon fill="white" stroke="none" points="-28.8,28.8 -28.8,-647.55 759.38,-647.55 759.38,28.8 -28.8,28.8"/>
<text xml:space="preserve" text-anchor="middle" x="199.25" y="-599.55" font-family="Helvetica,sans-Serif" font-weight="bold" font-size="16.00">SFH Fine&#45;Tuning Argument: Critical Path &amp; Breaks</text>
<g id="clust1" class="cluster">
<title>cluster_legend</title>
<polygon fill="#fafafa" stroke="#bbbbbb" stroke-dasharray="5,2" points="115.5,-152 115.5,-566.5 231.5,-566.5 231.5,-152 115.5,-152"/>
<text xml:space="preserve" text-anchor="middle" x="149.75" y="-553" font-family="Helvetica,sans-Serif" font-size="10.00">Node Types</text>
</g>
<g id="clust2" class="cluster">
<title>cluster_layer1</title>
<polygon fill="#f0fff4" stroke="#a3d9b1" points="399.5,-440 399.5,-567.25 521.5,-567.25 521.5,-440 399.5,-440"/>
<text xml:space="preserve" text-anchor="middle" x="454.75" y="-552.8" font-family="Helvetica,sans-Serif" font-weight="bold" font-size="11.00">Layer 1: Empirical</text>
</g>
<g id="clust3" class="cluster">
<title>cluster_layer2</title>
<polygon fill="#fffef0" stroke="#e6c300" points="392.5,-368 392.5,-423.25 528.5,-423.25 528.5,-368 392.5,-368"/>
<text xml:space="preserve" text-anchor="middle" x="458.62" y="-408.8" font-family="Helvetica,sans-Serif" font-weight="bold" font-size="11.00">Layer 2: Interpretation</text>
</g>
<g id="clust4" class="cluster">
<title>cluster_layer3</title>
<polygon fill="#fff5f5" stroke="#ee8888" points="231.5,-224 231.5,-351.25 402.5,-351.25 402.5,-224 231.5,-224"/>
<text xml:space="preserve" text-anchor="middle" x="316.75" y="-336.8" font-family="Helvetica,sans-Serif" font-weight="bold" font-size="11.00">Layer 3: Asserted Mechanism</text>
</g>
<g id="clust5" class="cluster">
<title>cluster_layer4</title>
<polygon fill="#fdf8ff" stroke="#bb8fce" points="292.5,-80 292.5,-207.25 460.5,-207.25 460.5,-80 292.5,-80"/>
<text xml:space="preserve" text-anchor="middle" x="376.25" y="-192.8" font-family="Helvetica,sans-Serif" font-weight="bold" font-size="11.00">Layer 4: Metric &amp; Predictions</text>
</g>
<g id="clust6" class="cluster">
<title>cluster_layer5</title>
<polygon fill="#fcfcfc" stroke="#bbbbbb" points="307.5,-8 307.5,-63.25 428.5,-63.25 428.5,-8 307.5,-8"/>
<text xml:space="preserve" text-anchor="middle" x="368" y="-48.8" font-family="Helvetica,sans-Serif" font-weight="bold" font-size="11.00">Layer 5: Conclusion</text>
</g>
<g id="clust7" class="cluster">
<title>cluster_orphans</title>
<polygon fill="white" stroke="#999999" stroke-dasharray="5,2" points="411.5,-296 411.5,-350.5 611.5,-350.5 611.5,-296 411.5,-296"/>
<text xml:space="preserve" text-anchor="middle" x="471.62" y="-337" font-family="Helvetica,sans-Serif" font-weight="bold" font-size="10.00">Mathematical Orphans</text>
</g>
<!-- legend_O -->
<g id="node1" class="node">
<title>legend_O</title>
<polygon fill="#d4edda" stroke="black" points="200.25,-548 140.75,-548 140.75,-512 206.25,-512 206.25,-542 200.25,-548"/>
<polyline fill="none" stroke="black" points="200.25,-548 200.25,-542"/>
<polyline fill="none" stroke="black" points="206.25,-542 200.25,-542"/>
<text xml:space="preserve" text-anchor="middle" x="173.5" y="-526.33" font-family="Helvetica,sans-Serif" font-size="9.00" fill="#155724">Observation</text>
</g>
<!-- legend_I -->
<g id="node2" class="node">
<title>legend_I</title>
<polygon fill="#fff3cd" stroke="black" points="202.5,-476 138.5,-476 138.5,-440 208.5,-440 208.5,-470 202.5,-476"/>
<polyline fill="none" stroke="black" points="202.5,-476 202.5,-470"/>
<polyline fill="none" stroke="black" points="208.5,-470 202.5,-470"/>
<text xml:space="preserve" text-anchor="middle" x="173.5" y="-454.32" font-family="Helvetica,sans-Serif" font-size="9.00" fill="#856404">Interpretation</text>
</g>
<!-- legend_O&#45;&gt;legend_I -->
<!-- legend_R -->
<g id="node3" class="node">
<title>legend_R</title>
<polygon fill="#f8d7da" stroke="black" points="225.38,-404 115.62,-404 115.62,-368 231.38,-368 231.38,-398 225.38,-404"/>
<polyline fill="none" stroke="black" points="225.38,-404 225.38,-398"/>
<polyline fill="none" stroke="black" points="231.38,-398 225.38,-398"/>
<text xml:space="preserve" text-anchor="middle" x="173.5" y="-382.32" font-family="Helvetica,sans-Serif" font-size="9.00" fill="#721c24">Assertion (no derivation)</text>
</g>
<!-- legend_I&#45;&gt;legend_R -->
<!-- legend_D -->
<g id="node4" class="node">
<title>legend_D</title>
<polygon fill="#cce5ff" stroke="black" points="195,-332 146,-332 146,-296 201,-296 201,-326 195,-332"/>
<polyline fill="none" stroke="black" points="195,-332 195,-326"/>
<polyline fill="none" stroke="black" points="201,-326 195,-326"/>
<text xml:space="preserve" text-anchor="middle" x="173.5" y="-310.32" font-family="Helvetica,sans-Serif" font-size="9.00" fill="#004085">Definition</text>
</g>
<!-- legend_R&#45;&gt;legend_D -->
<!-- legend_EC -->
<g id="node5" class="node">
<title>legend_EC</title>
<polygon fill="#e8daef" stroke="black" points="207.75,-260 133.25,-260 133.25,-224 213.75,-224 213.75,-254 207.75,-260"/>
<polyline fill="none" stroke="black" points="207.75,-260 207.75,-254"/>
<polyline fill="none" stroke="black" points="213.75,-254 207.75,-254"/>
<text xml:space="preserve" text-anchor="middle" x="173.5" y="-238.32" font-family="Helvetica,sans-Serif" font-size="9.00" fill="#6c3483">Empirical Claim</text>
</g>
<!-- legend_D&#45;&gt;legend_EC -->
<!-- legend_C -->
<g id="node6" class="node">
<title>legend_C</title>
<polygon fill="#d6d8db" stroke="black" points="198.75,-188 142.25,-188 142.25,-152 204.75,-152 204.75,-182 198.75,-188"/>
<polyline fill="none" stroke="black" points="198.75,-188 198.75,-182"/>
<polyline fill="none" stroke="black" points="204.75,-182 198.75,-182"/>
<text xml:space="preserve" text-anchor="middle" x="173.5" y="-166.32" font-family="Helvetica,sans-Serif" font-size="9.00" fill="#383d41">Conclusion</text>
</g>
<!-- legend_EC&#45;&gt;legend_C -->
<!-- N06 -->
<g id="node7" class="node">
<title>N06</title>
<path fill="#d4edda" stroke="black" d="M509.75,-548C509.75,-548 411.25,-548 411.25,-548 405.25,-548 399.25,-542 399.25,-536 399.25,-536 399.25,-524 399.25,-524 399.25,-518 405.25,-512 411.25,-512 411.25,-512 509.75,-512 509.75,-512 515.75,-512 521.75,-518 521.75,-524 521.75,-524 521.75,-536 521.75,-536 521.75,-542 515.75,-548 509.75,-548"/>
<text xml:space="preserve" text-anchor="middle" x="460.5" y="-531" font-family="Helvetica,sans-Serif" font-size="10.00" fill="#155724">N06: Physical constants</text>
<text xml:space="preserve" text-anchor="middle" x="460.5" y="-520.5" font-family="Helvetica,sans-Serif" font-size="10.00" fill="#155724">have observed values</text>
</g>
<!-- N07 -->
<g id="node8" class="node">
<title>N07</title>
<path fill="#d4edda" stroke="black" d="M504.88,-476C504.88,-476 416.12,-476 416.12,-476 410.12,-476 404.12,-470 404.12,-464 404.12,-464 404.12,-452 404.12,-452 404.12,-446 410.12,-440 416.12,-440 416.12,-440 504.88,-440 504.88,-440 510.88,-440 516.88,-446 516.88,-452 516.88,-452 516.88,-464 516.88,-464 516.88,-470 510.88,-476 504.88,-476"/>
<text xml:space="preserve" text-anchor="middle" x="460.5" y="-459" font-family="Helvetica,sans-Serif" font-size="10.00" fill="#155724">N07: These constants</text>
<text xml:space="preserve" text-anchor="middle" x="460.5" y="-448.5" font-family="Helvetica,sans-Serif" font-size="10.00" fill="#155724">appear fine&#45;tuned</text>
</g>
<!-- N06&#45;&gt;N07 -->
<g id="edge6" class="edge">
<title>N06&#45;&gt;N07</title>
<path fill="none" stroke="#555555" stroke-width="1.5" d="M460.5,-511.7C460.5,-504.58 460.5,-496.13 460.5,-488.11"/>
<polygon fill="#555555" stroke="#555555" stroke-width="1.5" points="464,-488.37 460.5,-478.37 457,-488.37 464,-488.37"/>
</g>
<!-- N08 -->
<g id="node9" class="node">
<title>N08</title>
<path fill="#fff3cd" stroke="black" d="M516.12,-404C516.12,-404 404.88,-404 404.88,-404 398.88,-404 392.88,-398 392.88,-392 392.88,-392 392.88,-380 392.88,-380 392.88,-374 398.88,-368 404.88,-368 404.88,-368 516.12,-368 516.12,-368 522.12,-368 528.12,-374 528.12,-380 528.12,-380 528.12,-392 528.12,-392 528.12,-398 522.12,-404 516.12,-404"/>
<text xml:space="preserve" text-anchor="middle" x="460.5" y="-387" font-family="Helvetica,sans-Serif" font-size="10.00" fill="#856404">N08: Materialism describes</text>
<text xml:space="preserve" text-anchor="middle" x="460.5" y="-376.5" font-family="Helvetica,sans-Serif" font-size="10.00" fill="#856404">how, not why</text>
</g>
<!-- N07&#45;&gt;N08 -->
<g id="edge7" class="edge">
<title>N07&#45;&gt;N08</title>
<path fill="none" stroke="#555555" stroke-width="1.5" d="M460.5,-439.7C460.5,-432.58 460.5,-424.13 460.5,-416.11"/>
<polygon fill="#555555" stroke="#555555" stroke-width="1.5" points="464,-416.37 460.5,-406.37 457,-416.37 464,-416.37"/>
</g>
<!-- N09 -->
<g id="node10" class="node">
<title>N09</title>
<path fill="#f8d7da" stroke="black" d="M377.75,-332C377.75,-332 261.25,-332 261.25,-332 255.25,-332 249.25,-326 249.25,-320 249.25,-320 249.25,-308 249.25,-308 249.25,-302 255.25,-296 261.25,-296 261.25,-296 377.75,-296 377.75,-296 383.75,-296 389.75,-302 389.75,-308 389.75,-308 389.75,-320 389.75,-320 389.75,-326 383.75,-332 377.75,-332"/>
<text xml:space="preserve" text-anchor="middle" x="319.5" y="-315" font-family="Helvetica,sans-Serif" font-size="10.00" fill="#721c24">N09: SF &quot;selects&quot; constants</text>
<text xml:space="preserve" text-anchor="middle" x="319.5" y="-304.5" font-family="Helvetica,sans-Serif" font-size="10.00" fill="#721c24">to maximize coherence</text>
</g>
<!-- N08&#45;&gt;N09 -->
<g id="edge8" class="edge">
<title>N08&#45;&gt;N09</title>
<path fill="none" stroke="#cc0000" stroke-width="2.5" stroke-dasharray="5,2" d="M425.28,-367.52C407.48,-358.68 385.64,-347.84 366.44,-338.3"/>
<polygon fill="#cc0000" stroke="#cc0000" stroke-width="2.5" points="368.17,-335.25 357.66,-333.94 365.06,-341.52 368.17,-335.25"/>
<text xml:space="preserve" text-anchor="middle" x="229.63" y="-351.08" font-family="Helvetica,sans-Serif" font-size="9.00">BREAK 1: Observation does not imply sentient selection. No mechanism given.</text>
</g>
<!-- N16 -->
<g id="node15" class="node">
<title>N16</title>
<path fill="#e2e3e5" stroke="black" d="M497.38,-332C497.38,-332 423.62,-332 423.62,-332 417.62,-332 411.62,-326 411.62,-320 411.62,-320 411.62,-308 411.62,-308 411.62,-302 417.62,-296 423.62,-296 423.62,-296 497.38,-296 497.38,-296 503.38,-296 509.38,-302 509.38,-308 509.38,-308 509.38,-320 509.38,-320 509.38,-326 503.38,-332 497.38,-332"/>
<text xml:space="preserve" text-anchor="middle" x="460.5" y="-315.2" font-family="Helvetica,sans-Serif" font-size="9.00" fill="#666666">N16&#45;N18: Transition</text>
<text xml:space="preserve" text-anchor="middle" x="460.5" y="-305.45" font-family="Helvetica,sans-Serif" font-size="9.00" fill="#666666">functions (f_t, g_s)</text>
</g>
<!-- N08&#45;&gt;N16 -->
<!-- N19 -->
<g id="node16" class="node">
<title>N19</title>
<path fill="#e2e3e5" stroke="black" d="M599.75,-332C599.75,-332 543.25,-332 543.25,-332 537.25,-332 531.25,-326 531.25,-320 531.25,-320 531.25,-308 531.25,-308 531.25,-302 537.25,-296 543.25,-296 543.25,-296 599.75,-296 599.75,-296 605.75,-296 611.75,-302 611.75,-308 611.75,-308 611.75,-320 611.75,-320 611.75,-326 605.75,-332 599.75,-332"/>
<text xml:space="preserve" text-anchor="middle" x="571.5" y="-315.2" font-family="Helvetica,sans-Serif" font-size="9.00" fill="#666666">N19: 3D vs 4D+</text>
<text xml:space="preserve" text-anchor="middle" x="571.5" y="-305.45" font-family="Helvetica,sans-Serif" font-size="9.00" fill="#666666">stability table</text>
</g>
<!-- N08&#45;&gt;N19 -->
<!-- N49 -->
<g id="node11" class="node">
<title>N49</title>
<path fill="#f8d7da" stroke="black" d="M375,-260C375,-260 254,-260 254,-260 248,-260 242,-254 242,-248 242,-248 242,-236 242,-236 242,-230 248,-224 254,-224 254,-224 375,-224 375,-224 381,-224 387,-230 387,-236 387,-236 387,-248 387,-248 387,-254 381,-260 375,-260"/>
<text xml:space="preserve" text-anchor="middle" x="314.5" y="-243" font-family="Helvetica,sans-Serif" font-size="10.00" fill="#721c24">N49: SF optimizes coherence</text>
<text xml:space="preserve" text-anchor="middle" x="314.5" y="-232.5" font-family="Helvetica,sans-Serif" font-size="10.00" fill="#721c24">across all scales</text>
</g>
<!-- N09&#45;&gt;N49 -->
<g id="edge10" class="edge">
<title>N09&#45;&gt;N49</title>
<path fill="none" stroke="#cc0000" stroke-width="1.5" stroke-dasharray="5,2" d="M318.26,-295.7C317.76,-288.58 317.15,-280.13 316.58,-272.11"/>
<polygon fill="#cc0000" stroke="#cc0000" stroke-width="1.5" points="320.09,-272.09 315.88,-262.37 313.1,-272.59 320.09,-272.09"/>
</g>
<!-- N14 -->
<g id="node12" class="node">
<title>N14</title>
<path fill="#cce5ff" stroke="black" d="M414.12,-188C414.12,-188 320.88,-188 320.88,-188 314.88,-188 308.88,-182 308.88,-176 308.88,-176 308.88,-164 308.88,-164 308.88,-158 314.88,-152 320.88,-152 320.88,-152 414.12,-152 414.12,-152 420.12,-152 426.12,-158 426.12,-164 426.12,-164 426.12,-176 426.12,-176 426.12,-182 420.12,-188 414.12,-188"/>
<text xml:space="preserve" text-anchor="middle" x="367.5" y="-171" font-family="Helvetica,sans-Serif" font-size="10.00" fill="#004085">N14: Coherence metric</text>
<text xml:space="preserve" text-anchor="middle" x="367.5" y="-160.5" font-family="Helvetica,sans-Serif" font-size="10.00" fill="#004085">C defined</text>
</g>
<!-- N09&#45;&gt;N14 -->
<g id="edge9" class="edge">
<title>N09&#45;&gt;N14</title>
<path fill="none" stroke="#cc0000" stroke-width="2.5" stroke-dasharray="5,2" d="M360.6,-295.65C375.3,-287.19 390.26,-275.45 398.5,-260 408.7,-240.88 400.05,-217.72 389.32,-199.82"/>
<polygon fill="#cc0000" stroke="#cc0000" stroke-width="2.5" points="392.28,-197.96 383.85,-191.54 386.44,-201.82 392.28,-197.96"/>
<text xml:space="preserve" text-anchor="middle" x="566.71" y="-246.73" font-family="Helvetica,sans-Serif" font-size="9.00">BREAK 2: C defined independently of SF/fiber bundles. Assertion, not derivation.</text>
</g>
<!-- N49&#45;&gt;N14 -->
<g id="edge11" class="edge">
<title>N49&#45;&gt;N14</title>
<path fill="none" stroke="#999999" stroke-dasharray="1,5" d="M327.6,-223.7C333.63,-215.73 340.92,-206.1 347.61,-197.26"/>
<polygon fill="#999999" stroke="#999999" points="350.39,-199.4 353.64,-189.31 344.81,-195.17 350.39,-199.4"/>
</g>
<!-- N33 -->
<g id="node13" class="node">
<title>N33</title>
<path fill="#e8daef" stroke="black" d="M418.62,-116C418.62,-116 316.38,-116 316.38,-116 310.38,-116 304.38,-110 304.38,-104 304.38,-104 304.38,-92 304.38,-92 304.38,-86 310.38,-80 316.38,-80 316.38,-80 418.62,-80 418.62,-80 424.62,-80 430.62,-86 430.62,-92 430.62,-92 430.62,-104 430.62,-104 430.62,-110 424.62,-116 418.62,-116"/>
<text xml:space="preserve" text-anchor="middle" x="367.5" y="-99" font-family="Helvetica,sans-Serif" font-size="10.00" fill="#6c3483">N33&#45;N44: C &gt;= threshold</text>
<text xml:space="preserve" text-anchor="middle" x="367.5" y="-88.5" font-family="Helvetica,sans-Serif" font-size="10.00" fill="#6c3483">predictions (14 claims)</text>
</g>
<!-- N14&#45;&gt;N33 -->
<g id="edge12" class="edge">
<title>N14&#45;&gt;N33</title>
<path fill="none" stroke="#555555" stroke-width="1.5" d="M367.5,-151.7C367.5,-144.58 367.5,-136.13 367.5,-128.11"/>
<polygon fill="#555555" stroke="#555555" stroke-width="1.5" points="371,-128.37 367.5,-118.37 364,-128.37 371,-128.37"/>
</g>
<!-- N54 -->
<g id="node14" class="node">
<title>N54</title>
<path fill="#d6d8db" stroke="black" d="M402.88,-44C402.88,-44 332.12,-44 332.12,-44 326.12,-44 320.12,-38 320.12,-32 320.12,-32 320.12,-20 320.12,-20 320.12,-14 326.12,-8 332.12,-8 332.12,-8 402.88,-8 402.88,-8 408.88,-8 414.88,-14 414.88,-20 414.88,-20 414.88,-32 414.88,-32 414.88,-38 408.88,-44 402.88,-44"/>
<text xml:space="preserve" text-anchor="middle" x="367.5" y="-27" font-family="Helvetica,sans-Serif" font-size="10.00" fill="#383d41">N54: SFH is</text>
<text xml:space="preserve" text-anchor="middle" x="367.5" y="-16.5" font-family="Helvetica,sans-Serif" font-size="10.00" fill="#383d41">testable/falsifiable</text>
</g>
<!-- N33&#45;&gt;N54 -->
<g id="edge13" class="edge">
<title>N33&#45;&gt;N54</title>
<path fill="none" stroke="#cc0000" stroke-width="2.5" stroke-dasharray="5,2" d="M367.5,-79.7C367.5,-73.08 367.5,-65.33 367.5,-57.83"/>
<polygon fill="#cc0000" stroke="#cc0000" stroke-width="2.5" points="371,-57.89 367.5,-47.89 364,-57.89 371,-57.89"/>
<text xml:space="preserve" text-anchor="middle" x="183.75" y="-63.27" font-family="Helvetica,sans-Serif" font-size="9.00">BREAK 3: Each threshold depends on asserted baselines. Free parameters = unfalsifiable.</text>
</g>
</g>
</svg>
