<?xml version="1.0" encoding="UTF-8"?>
<svg xmlns="http://www.w3.org/2000/svg" xmlns:xlink="http://www.w3.org/1999/xlink" width="854" height="480" viewBox="0 0 854 480">
<defs>
<g>
<g id="glyph-0-0">
<path d="M 0 0 L 0 -0.5625 L 0.25 -0.5625 C 0.507812 -0.5625 0.703125 -0.625 0.828125 -0.75 C 0.960938 -0.882812 1.109375 -1.164062 1.265625 -1.59375 L 4.21875 -9.515625 L 5.265625 -9.515625 L 8.28125 -1.265625 C 8.375 -0.992188 8.488281 -0.804688 8.625 -0.703125 C 8.769531 -0.609375 8.96875 -0.5625 9.21875 -0.5625 L 9.390625 -0.5625 L 9.390625 0 L 5.734375 0 L 5.734375 -0.5625 L 6.03125 -0.5625 C 6.570312 -0.5625 6.84375 -0.773438 6.84375 -1.203125 C 6.84375 -1.273438 6.832031 -1.347656 6.8125 -1.421875 C 6.789062 -1.503906 6.765625 -1.59375 6.734375 -1.6875 L 6.203125 -3.1875 L 2.6875 -3.1875 L 2.1875 -1.78125 C 2.101562 -1.570312 2.0625 -1.382812 2.0625 -1.21875 C 2.0625 -0.78125 2.359375 -0.5625 2.953125 -0.5625 L 3.25 -0.5625 L 3.25 0 Z M 2.953125 -3.859375 L 5.953125 -3.859375 L 5.125 -6.1875 C 4.988281 -6.570312 4.863281 -6.9375 4.75 -7.28125 C 4.632812 -7.632812 4.539062 -7.972656 4.46875 -8.296875 C 4.40625 -7.972656 4.320312 -7.664062 4.21875 -7.375 C 4.125 -7.082031 4.003906 -6.722656 3.859375 -6.296875 Z "/>
</g>
<g id="glyph-0-1">
<path d="M 5.34375 0.140625 C 4.3125 0.140625 3.457031 -0.0625 2.78125 -0.46875 C 2.101562 -0.882812 1.597656 -1.457031 1.265625 -2.1875 C 0.929688 -2.925781 0.765625 -3.785156 0.765625 -4.765625 C 0.765625 -5.722656 0.9375 -6.566406 1.28125 -7.296875 C 1.632812 -8.035156 2.15625 -8.613281 2.84375 -9.03125 C 3.539062 -9.445312 4.398438 -9.65625 5.421875 -9.65625 C 6.410156 -9.65625 7.148438 -9.507812 7.640625 -9.21875 C 8.128906 -8.9375 8.375 -8.582031 8.375 -8.15625 C 8.375 -7.875 8.253906 -7.644531 8.015625 -7.46875 C 7.773438 -7.300781 7.476562 -7.21875 7.125 -7.21875 C 7.125 -7.5 7.066406 -7.769531 6.953125 -8.03125 C 6.847656 -8.289062 6.664062 -8.503906 6.40625 -8.671875 C 6.15625 -8.847656 5.8125 -8.9375 5.375 -8.9375 C 4.238281 -8.9375 3.429688 -8.570312 2.953125 -7.84375 C 2.472656 -7.125 2.234375 -6.097656 2.234375 -4.765625 C 2.234375 -3.429688 2.484375 -2.40625 2.984375 -1.6875 C 3.492188 -0.976562 4.351562 -0.625 5.5625 -0.625 C 5.8125 -0.625 6.054688 -0.632812 6.296875 -0.65625 C 6.535156 -0.6875 6.75 -0.726562 6.9375 -0.78125 L 6.9375 -2.9375 C 6.9375 -3.320312 6.828125 -3.566406 6.609375 -3.671875 C 6.398438 -3.785156 6.144531 -3.84375 5.84375 -3.84375 L 5.796875 -3.84375 L 5.796875 -4.390625 L 9.265625 -4.390625 L 9.265625 -3.84375 L 9.203125 -3.84375 C 8.960938 -3.84375 8.75 -3.785156 8.5625 -3.671875 C 8.382812 -3.554688 8.296875 -3.289062 8.296875 -2.875 L 8.296875 -0.484375 C 7.847656 -0.273438 7.382812 -0.117188 6.90625 -0.015625 C 6.4375 0.0859375 5.914062 0.140625 5.34375 0.140625 Z "/>
</g>
<g id="glyph-0-2">
<path d="M 0.5 0 L 0.5 -0.5625 L 0.6875 -0.5625 C 0.976562 -0.5625 1.226562 -0.609375 1.4375 -0.703125 C 1.65625 -0.804688 1.765625 -1.054688 1.765625 -1.453125 L 1.765625 -8.046875 C 1.765625 -8.441406 1.65625 -8.691406 1.4375 -8.796875 C 1.226562 -8.898438 0.976562 -8.953125 0.6875 -8.953125 L 0.5 -8.953125 L 0.5 -9.515625 L 4.09375 -9.515625 C 6.375 -9.515625 7.515625 -8.65625 7.515625 -6.9375 C 7.515625 -6.46875 7.414062 -6.070312 7.21875 -5.75 C 7.03125 -5.425781 6.785156 -5.164062 6.484375 -4.96875 C 6.179688 -4.769531 5.875 -4.617188 5.5625 -4.515625 L 7.390625 -1.625 C 7.617188 -1.269531 7.835938 -1.003906 8.046875 -0.828125 C 8.265625 -0.648438 8.507812 -0.5625 8.78125 -0.5625 L 8.828125 -0.5625 L 8.828125 0 L 8.640625 0 C 8.085938 0 7.65625 -0.0234375 7.34375 -0.078125 C 7.039062 -0.140625 6.796875 -0.253906 6.609375 -0.421875 C 6.421875 -0.597656 6.226562 -0.859375 6.03125 -1.203125 L 4.21875 -4.203125 L 3.125 -4.203125 L 3.125 -1.453125 C 3.125 -1.054688 3.226562 -0.804688 3.4375 -0.703125 C 3.65625 -0.609375 3.914062 -0.5625 4.21875 -0.5625 L 4.390625 -0.5625 L 4.390625 0 Z M 4.046875 -4.828125 C 4.828125 -4.828125 5.363281 -5 5.65625 -5.34375 C 5.945312 -5.6875 6.09375 -6.207031 6.09375 -6.90625 C 6.09375 -7.613281 5.9375 -8.117188 5.625 -8.421875 C 5.3125 -8.722656 4.78125 -8.875 4.03125 -8.875 L 3.125 -8.875 L 3.125 -4.828125 Z "/>
</g>
<g id="glyph-0-3">
<path d="M 0.5 0 L 0.5 -0.5625 L 0.6875 -0.5625 C 0.976562 -0.5625 1.226562 -0.609375 1.4375 -0.703125 C 1.65625 -0.804688 1.765625 -1.054688 1.765625 -1.453125 L 1.765625 -8 C 1.765625 -8.414062 1.660156 -8.675781 1.453125 -8.78125 C 1.242188 -8.894531 0.988281 -8.953125 0.6875 -8.953125 L 0.5 -8.953125 L 0.5 -9.515625 L 7.21875 -9.515625 L 7.296875 -7.1875 L 6.59375 -7.1875 L 6.53125 -7.75 C 6.5 -8.050781 6.394531 -8.304688 6.21875 -8.515625 C 6.039062 -8.734375 5.753906 -8.84375 5.359375 -8.84375 L 3.125 -8.84375 L 3.125 -5.296875 L 6.328125 -5.296875 L 6.328125 -4.65625 L 3.125 -4.65625 L 3.125 -0.671875 L 5.6875 -0.671875 C 6.101562 -0.671875 6.40625 -0.773438 6.59375 -0.984375 C 6.789062 -1.203125 6.910156 -1.460938 6.953125 -1.765625 L 7.046875 -2.328125 L 7.75 -2.328125 L 7.65625 0 Z "/>
</g>
<g id="glyph-0-4">
<path d="M 1.859375 -2.671875 L 1.4375 -9.515625 L 2.984375 -9.515625 L 2.578125 -2.671875 Z M 2.21875 0.09375 C 1.976562 0.09375 1.773438 0.0234375 1.609375 -0.109375 C 1.453125 -0.242188 1.375 -0.476562 1.375 -0.8125 C 1.375 -1.15625 1.453125 -1.390625 1.609375 -1.515625 C 1.773438 -1.648438 1.976562 -1.71875 2.21875 -1.71875 C 2.445312 -1.71875 2.640625 -1.648438 2.796875 -1.515625 C 2.960938 -1.390625 3.046875 -1.15625 3.046875 -0.8125 C 3.046875 -0.476562 2.960938 -0.242188 2.796875 -0.109375 C 2.640625 0.0234375 2.445312 0.09375 2.21875 0.09375 Z "/>
</g>
</g>
</defs>
<g fill="rgb(96.862745%, 85.098039%, 43.529412%)" fill-opacity="1">
<use xlink:href="#glyph-0-0" x="30" y="34.25293"/>
<use xlink:href="#glyph-0-1" x="39" y="34.25293"/>
<use xlink:href="#glyph-0-2" x="49" y="34.25293"/>
<use xlink:href="#glyph-0-3" x="58" y="34.25293"/>
<use xlink:href="#glyph-0-3" x="66" y="34.25293"/>
<use xlink:href="#glyph-0-4" x="74" y="34.25293"/>
</g>
</svg>
