<?xml version="1.0" encoding="UTF-8"?>
<svg xmlns="http://www.w3.org/2000/svg" xmlns:xlink="http://www.w3.org/1999/xlink" width="854" height="480" viewBox="0 0 854 480">
<defs>
<g>
<g id="glyph-0-0">
<path d="M 4.046875 0 L 3.40625 0 L 1.078125 -3.625 L 1.046875 -3.625 C 1.054688 -3.476562 1.066406 -3.300781 1.078125 -3.09375 C 1.085938 -2.882812 1.09375 -2.664062 1.09375 -2.4375 L 1.09375 0 L 0.59375 0 L 0.59375 -4.359375 L 1.234375 -4.359375 L 3.5625 -0.75 L 3.578125 -0.75 C 3.578125 -0.8125 3.570312 -0.90625 3.5625 -1.03125 C 3.5625 -1.164062 3.554688 -1.3125 3.546875 -1.46875 C 3.535156 -1.625 3.53125 -1.769531 3.53125 -1.90625 L 3.53125 -4.359375 L 4.046875 -4.359375 Z "/>
</g>
<g id="glyph-0-1">
<path d="M 3.359375 -1.640625 C 3.359375 -1.097656 3.222656 -0.675781 2.953125 -0.375 C 2.679688 -0.0820312 2.3125 0.0625 1.84375 0.0625 C 1.550781 0.0625 1.289062 -0.00390625 1.0625 -0.140625 C 0.84375 -0.273438 0.664062 -0.46875 0.53125 -0.71875 C 0.40625 -0.96875 0.34375 -1.273438 0.34375 -1.640625 C 0.34375 -2.179688 0.476562 -2.597656 0.75 -2.890625 C 1.019531 -3.179688 1.390625 -3.328125 1.859375 -3.328125 C 2.148438 -3.328125 2.410156 -3.257812 2.640625 -3.125 C 2.867188 -3 3.046875 -2.8125 3.171875 -2.5625 C 3.296875 -2.3125 3.359375 -2.003906 3.359375 -1.640625 Z M 0.890625 -1.640625 C 0.890625 -1.253906 0.960938 -0.945312 1.109375 -0.71875 C 1.265625 -0.5 1.507812 -0.390625 1.84375 -0.390625 C 2.175781 -0.390625 2.421875 -0.5 2.578125 -0.71875 C 2.734375 -0.945312 2.8125 -1.253906 2.8125 -1.640625 C 2.8125 -2.023438 2.734375 -2.328125 2.578125 -2.546875 C 2.421875 -2.773438 2.175781 -2.890625 1.84375 -2.890625 C 1.507812 -2.890625 1.265625 -2.773438 1.109375 -2.546875 C 0.960938 -2.328125 0.890625 -2.023438 0.890625 -1.640625 Z "/>
</g>
<g id="glyph-0-2">
<path d="M 1.609375 -0.375 C 1.691406 -0.375 1.773438 -0.378906 1.859375 -0.390625 C 1.941406 -0.410156 2.015625 -0.429688 2.078125 -0.453125 L 2.078125 -0.03125 C 2.015625 -0.0078125 1.929688 0.0078125 1.828125 0.03125 C 1.722656 0.0507812 1.617188 0.0625 1.515625 0.0625 C 1.347656 0.0625 1.191406 0.0351562 1.046875 -0.015625 C 0.898438 -0.078125 0.78125 -0.179688 0.6875 -0.328125 C 0.601562 -0.484375 0.5625 -0.691406 0.5625 -0.953125 L 0.5625 -2.859375 L 0.09375 -2.859375 L 0.09375 -3.109375 L 0.5625 -3.328125 L 0.78125 -4.03125 L 1.09375 -4.03125 L 1.09375 -3.28125 L 2.046875 -3.28125 L 2.046875 -2.859375 L 1.09375 -2.859375 L 1.09375 -0.96875 C 1.09375 -0.769531 1.140625 -0.617188 1.234375 -0.515625 C 1.335938 -0.421875 1.460938 -0.375 1.609375 -0.375 Z "/>
</g>
<g id="glyph-0-3">
</g>
<g id="glyph-0-4">
<path d="M 1.0625 -3.28125 C 1.0625 -3.113281 1.050781 -2.960938 1.03125 -2.828125 L 1.0625 -2.828125 C 1.164062 -2.992188 1.304688 -3.117188 1.484375 -3.203125 C 1.671875 -3.285156 1.867188 -3.328125 2.078125 -3.328125 C 2.484375 -3.328125 2.785156 -3.234375 2.984375 -3.046875 C 3.179688 -2.859375 3.28125 -2.550781 3.28125 -2.125 L 3.28125 0 L 2.75 0 L 2.75 -2.09375 C 2.75 -2.625 2.503906 -2.890625 2.015625 -2.890625 C 1.648438 -2.890625 1.398438 -2.785156 1.265625 -2.578125 C 1.128906 -2.367188 1.0625 -2.070312 1.0625 -1.6875 L 1.0625 0 L 0.515625 0 L 0.515625 -4.640625 L 1.0625 -4.640625 Z "/>
</g>
<g id="glyph-0-5">
<path d="M 2.640625 -1.84375 C 2.578125 -2.019531 2.523438 -2.1875 2.484375 -2.34375 C 2.453125 -2.5 2.425781 -2.625 2.40625 -2.71875 L 2.375 -2.71875 C 2.363281 -2.625 2.335938 -2.5 2.296875 -2.34375 C 2.265625 -2.1875 2.21875 -2.019531 2.15625 -1.84375 L 1.578125 0 L 0.96875 0 L 0.0625 -3.28125 L 0.625 -3.28125 L 1.078125 -1.53125 C 1.117188 -1.351562 1.160156 -1.175781 1.203125 -1 C 1.242188 -0.820312 1.273438 -0.675781 1.296875 -0.5625 L 1.3125 -0.5625 C 1.332031 -0.625 1.351562 -0.707031 1.375 -0.8125 C 1.394531 -0.914062 1.414062 -1.019531 1.4375 -1.125 C 1.46875 -1.238281 1.5 -1.34375 1.53125 -1.4375 L 2.109375 -3.28125 L 2.703125 -3.28125 L 3.265625 -1.4375 C 3.304688 -1.300781 3.347656 -1.148438 3.390625 -0.984375 C 3.429688 -0.816406 3.460938 -0.675781 3.484375 -0.5625 L 3.5 -0.5625 C 3.519531 -0.664062 3.550781 -0.804688 3.59375 -0.984375 C 3.632812 -1.160156 3.679688 -1.34375 3.734375 -1.53125 L 4.1875 -3.28125 L 4.734375 -3.28125 L 3.828125 0 L 3.1875 0 Z "/>
</g>
<g id="glyph-0-6">
<path d="M 2.03125 -2.859375 L 1.203125 -2.859375 L 1.203125 0 L 0.671875 0 L 0.671875 -2.859375 L 0.09375 -2.859375 L 0.09375 -3.109375 L 0.671875 -3.296875 L 0.671875 -3.484375 C 0.671875 -3.910156 0.765625 -4.210938 0.953125 -4.390625 C 1.140625 -4.578125 1.398438 -4.671875 1.734375 -4.671875 C 1.859375 -4.671875 1.972656 -4.660156 2.078125 -4.640625 C 2.191406 -4.617188 2.285156 -4.59375 2.359375 -4.5625 L 2.21875 -4.140625 C 2.15625 -4.160156 2.082031 -4.179688 2 -4.203125 C 1.914062 -4.222656 1.828125 -4.234375 1.734375 -4.234375 C 1.554688 -4.234375 1.421875 -4.171875 1.328125 -4.046875 C 1.242188 -3.929688 1.203125 -3.742188 1.203125 -3.484375 L 1.203125 -3.28125 L 2.03125 -3.28125 Z "/>
</g>
<g id="glyph-0-7">
<path d="M 1.765625 -3.328125 C 2.160156 -3.328125 2.453125 -3.238281 2.640625 -3.0625 C 2.835938 -2.882812 2.9375 -2.609375 2.9375 -2.234375 L 2.9375 0 L 2.546875 0 L 2.4375 -0.46875 L 2.40625 -0.46875 C 2.269531 -0.289062 2.125 -0.15625 1.96875 -0.0625 C 1.8125 0.0195312 1.59375 0.0625 1.3125 0.0625 C 1.019531 0.0625 0.773438 -0.015625 0.578125 -0.171875 C 0.378906 -0.328125 0.28125 -0.570312 0.28125 -0.90625 C 0.28125 -1.238281 0.40625 -1.492188 0.65625 -1.671875 C 0.914062 -1.847656 1.3125 -1.941406 1.84375 -1.953125 L 2.40625 -1.96875 L 2.40625 -2.171875 C 2.40625 -2.441406 2.34375 -2.628906 2.21875 -2.734375 C 2.101562 -2.835938 1.941406 -2.890625 1.734375 -2.890625 C 1.554688 -2.890625 1.390625 -2.863281 1.234375 -2.8125 C 1.085938 -2.769531 0.945312 -2.710938 0.8125 -2.640625 L 0.640625 -3.046875 C 0.785156 -3.128906 0.953125 -3.195312 1.140625 -3.25 C 1.335938 -3.300781 1.546875 -3.328125 1.765625 -3.328125 Z M 1.921875 -1.578125 C 1.515625 -1.566406 1.234375 -1.503906 1.078125 -1.390625 C 0.921875 -1.273438 0.84375 -1.113281 0.84375 -0.90625 C 0.84375 -0.71875 0.894531 -0.582031 1 -0.5 C 1.113281 -0.414062 1.257812 -0.375 1.4375 -0.375 C 1.707031 -0.375 1.9375 -0.445312 2.125 -0.59375 C 2.3125 -0.75 2.40625 -0.988281 2.40625 -1.3125 L 2.40625 -1.59375 Z "/>
</g>
<g id="glyph-0-8">
<path d="M 2.65625 -0.90625 C 2.65625 -0.582031 2.535156 -0.335938 2.296875 -0.171875 C 2.054688 -0.015625 1.738281 0.0625 1.34375 0.0625 C 1.113281 0.0625 0.914062 0.0390625 0.75 0 C 0.582031 -0.03125 0.4375 -0.078125 0.3125 -0.140625 L 0.3125 -0.640625 C 0.445312 -0.566406 0.601562 -0.503906 0.78125 -0.453125 C 0.96875 -0.398438 1.160156 -0.375 1.359375 -0.375 C 1.628906 -0.375 1.820312 -0.414062 1.9375 -0.5 C 2.0625 -0.59375 2.125 -0.710938 2.125 -0.859375 C 2.125 -0.941406 2.101562 -1.015625 2.0625 -1.078125 C 2.019531 -1.140625 1.941406 -1.203125 1.828125 -1.265625 C 1.710938 -1.335938 1.546875 -1.410156 1.328125 -1.484375 C 1.117188 -1.566406 0.9375 -1.648438 0.78125 -1.734375 C 0.632812 -1.816406 0.519531 -1.914062 0.4375 -2.03125 C 0.351562 -2.144531 0.3125 -2.289062 0.3125 -2.46875 C 0.3125 -2.75 0.421875 -2.960938 0.640625 -3.109375 C 0.867188 -3.253906 1.171875 -3.328125 1.546875 -3.328125 C 1.742188 -3.328125 1.925781 -3.304688 2.09375 -3.265625 C 2.269531 -3.234375 2.429688 -3.179688 2.578125 -3.109375 L 2.40625 -2.6875 C 2.257812 -2.75 2.109375 -2.796875 1.953125 -2.828125 C 1.804688 -2.867188 1.65625 -2.890625 1.5 -2.890625 C 1.28125 -2.890625 1.113281 -2.851562 1 -2.78125 C 0.882812 -2.71875 0.828125 -2.625 0.828125 -2.5 C 0.828125 -2.40625 0.851562 -2.328125 0.90625 -2.265625 C 0.957031 -2.203125 1.046875 -2.140625 1.171875 -2.078125 C 1.296875 -2.023438 1.460938 -1.957031 1.671875 -1.875 C 1.878906 -1.800781 2.054688 -1.722656 2.203125 -1.640625 C 2.347656 -1.554688 2.457031 -1.457031 2.53125 -1.34375 C 2.613281 -1.226562 2.65625 -1.082031 2.65625 -0.90625 Z "/>
</g>
<g id="glyph-0-9">
<path d="M 1.78125 -3.328125 C 2.0625 -3.328125 2.300781 -3.265625 2.5 -3.140625 C 2.707031 -3.023438 2.863281 -2.851562 2.96875 -2.625 C 3.082031 -2.40625 3.140625 -2.148438 3.140625 -1.859375 L 3.140625 -1.53125 L 0.890625 -1.53125 C 0.898438 -1.164062 0.992188 -0.882812 1.171875 -0.6875 C 1.359375 -0.488281 1.613281 -0.390625 1.9375 -0.390625 C 2.144531 -0.390625 2.328125 -0.410156 2.484375 -0.453125 C 2.648438 -0.492188 2.816406 -0.550781 2.984375 -0.625 L 2.984375 -0.15625 C 2.816406 -0.0820312 2.648438 -0.03125 2.484375 0 C 2.328125 0.0390625 2.132812 0.0625 1.90625 0.0625 C 1.601562 0.0625 1.332031 0 1.09375 -0.125 C 0.851562 -0.25 0.664062 -0.4375 0.53125 -0.6875 C 0.40625 -0.9375 0.34375 -1.242188 0.34375 -1.609375 C 0.34375 -1.972656 0.398438 -2.28125 0.515625 -2.53125 C 0.640625 -2.789062 0.804688 -2.988281 1.015625 -3.125 C 1.234375 -3.257812 1.488281 -3.328125 1.78125 -3.328125 Z M 1.78125 -2.890625 C 1.519531 -2.890625 1.316406 -2.804688 1.171875 -2.640625 C 1.023438 -2.484375 0.9375 -2.257812 0.90625 -1.96875 L 2.578125 -1.96875 C 2.566406 -2.238281 2.5 -2.457031 2.375 -2.625 C 2.25 -2.800781 2.050781 -2.890625 1.78125 -2.890625 Z "/>
</g>
<g id="glyph-0-10">
<path d="M 0 -3.28125 L 0.578125 -3.28125 L 1.296875 -1.40625 C 1.347656 -1.25 1.398438 -1.09375 1.453125 -0.9375 C 1.503906 -0.789062 1.539062 -0.648438 1.5625 -0.515625 L 1.59375 -0.515625 C 1.613281 -0.617188 1.648438 -0.753906 1.703125 -0.921875 C 1.753906 -1.085938 1.8125 -1.253906 1.875 -1.421875 L 2.53125 -3.28125 L 3.109375 -3.28125 L 1.703125 0.453125 C 1.585938 0.765625 1.4375 1.007812 1.25 1.1875 C 1.070312 1.375 0.828125 1.46875 0.515625 1.46875 C 0.410156 1.46875 0.320312 1.460938 0.25 1.453125 C 0.175781 1.441406 0.113281 1.429688 0.0625 1.421875 L 0.0625 0.984375 C 0.113281 0.992188 0.171875 1.003906 0.234375 1.015625 C 0.296875 1.023438 0.359375 1.03125 0.421875 1.03125 C 0.609375 1.03125 0.757812 0.972656 0.875 0.859375 C 1 0.753906 1.09375 0.617188 1.15625 0.453125 L 1.328125 0.015625 Z "/>
</g>
<g id="glyph-0-11">
<path d="M 4.109375 -3.328125 C 4.484375 -3.328125 4.757812 -3.234375 4.9375 -3.046875 C 5.125 -2.859375 5.21875 -2.550781 5.21875 -2.125 L 5.21875 0 L 4.6875 0 L 4.6875 -2.109375 C 4.6875 -2.628906 4.460938 -2.890625 4.015625 -2.890625 C 3.703125 -2.890625 3.476562 -2.796875 3.34375 -2.609375 C 3.207031 -2.421875 3.140625 -2.15625 3.140625 -1.8125 L 3.140625 0 L 2.609375 0 L 2.609375 -2.109375 C 2.609375 -2.628906 2.382812 -2.890625 1.9375 -2.890625 C 1.601562 -2.890625 1.375 -2.785156 1.25 -2.578125 C 1.125 -2.367188 1.0625 -2.078125 1.0625 -1.703125 L 1.0625 0 L 0.515625 0 L 0.515625 -3.28125 L 0.953125 -3.28125 L 1.03125 -2.828125 L 1.0625 -2.828125 C 1.164062 -2.992188 1.300781 -3.117188 1.46875 -3.203125 C 1.644531 -3.285156 1.832031 -3.328125 2.03125 -3.328125 C 2.539062 -3.328125 2.875 -3.144531 3.03125 -2.78125 L 3.0625 -2.78125 C 3.164062 -2.96875 3.3125 -3.101562 3.5 -3.1875 C 3.695312 -3.28125 3.898438 -3.328125 4.109375 -3.328125 Z "/>
</g>
<g id="glyph-0-12">
<path d="M 1.234375 0 L 0 -3.28125 L 0.578125 -3.28125 L 1.265625 -1.34375 C 1.296875 -1.25 1.328125 -1.144531 1.359375 -1.03125 C 1.398438 -0.925781 1.4375 -0.820312 1.46875 -0.71875 C 1.5 -0.625 1.519531 -0.539062 1.53125 -0.46875 L 1.5625 -0.46875 C 1.570312 -0.539062 1.59375 -0.628906 1.625 -0.734375 C 1.65625 -0.835938 1.691406 -0.941406 1.734375 -1.046875 C 1.773438 -1.160156 1.804688 -1.257812 1.828125 -1.34375 L 2.53125 -3.28125 L 3.109375 -3.28125 L 1.859375 0 Z "/>
</g>
</g>
</defs>
<g fill="rgb(98.823529%, 38.431373%, 33.333333%)" fill-opacity="1">
<use xlink:href="#glyph-0-0" x="30" y="26.532227"/>
<use xlink:href="#glyph-0-1" x="35" y="26.532227"/>
<use xlink:href="#glyph-0-2" x="39" y="26.532227"/>
<use xlink:href="#glyph-0-3" x="41" y="26.532227"/>
<use xlink:href="#glyph-0-4" x="43" y="26.532227"/>
<use xlink:href="#glyph-0-1" x="47" y="26.532227"/>
<use xlink:href="#glyph-0-5" x="51" y="26.532227"/>
<use xlink:href="#glyph-0-3" x="56" y="26.532227"/>
<use xlink:href="#glyph-0-6" x="58" y="26.532227"/>
<use xlink:href="#glyph-0-7" x="60" y="26.532227"/>
<use xlink:href="#glyph-0-8" x="63" y="26.532227"/>
<use xlink:href="#glyph-0-2" x="66" y="26.532227"/>
<use xlink:href="#glyph-0-3" x="68" y="26.532227"/>
<use xlink:href="#glyph-0-2" x="70" y="26.532227"/>
<use xlink:href="#glyph-0-4" x="72" y="26.532227"/>
<use xlink:href="#glyph-0-9" x="76" y="26.532227"/>
<use xlink:href="#glyph-0-10" x="79" y="26.532227"/>
<use xlink:href="#glyph-0-3" x="82" y="26.532227"/>
<use xlink:href="#glyph-0-11" x="84" y="26.532227"/>
<use xlink:href="#glyph-0-1" x="90" y="26.532227"/>
<use xlink:href="#glyph-0-12" x="94" y="26.532227"/>
<use xlink:href="#glyph-0-9" x="97" y="26.532227"/>
</g>
</svg>
