<?xml version="1.0" encoding="UTF-8"?>
<svg xmlns="http://www.w3.org/2000/svg" xmlns:xlink="http://www.w3.org/1999/xlink" width="854" height="480" viewBox="0 0 854 480">
<defs>
<g>
<g id="glyph-0-0">
<path d="M 1.796875 0 L 0.34375 0 L 0.34375 -2.578125 L 1.796875 -2.578125 L 1.796875 -2.296875 L 0.671875 -2.296875 L 0.671875 -1.484375 L 1.71875 -1.484375 L 1.71875 -1.203125 L 0.671875 -1.203125 L 0.671875 -0.28125 L 1.796875 -0.28125 Z "/>
</g>
<g id="glyph-0-1">
<path d="M 1.28125 0 L 0.96875 0 L 0.96875 -1.796875 C 0.96875 -1.898438 0.96875 -1.984375 0.96875 -2.046875 C 0.976562 -2.109375 0.984375 -2.175781 0.984375 -2.25 C 0.941406 -2.207031 0.90625 -2.171875 0.875 -2.140625 C 0.84375 -2.117188 0.804688 -2.085938 0.765625 -2.046875 L 0.484375 -1.828125 L 0.328125 -2.03125 L 1.015625 -2.578125 L 1.28125 -2.578125 Z "/>
</g>
<g id="glyph-0-2">
</g>
<g id="glyph-0-3">
<path d="M 1.8125 -0.6875 C 1.8125 -0.457031 1.726562 -0.28125 1.5625 -0.15625 C 1.394531 -0.03125 1.171875 0.03125 0.890625 0.03125 C 0.742188 0.03125 0.609375 0.0195312 0.484375 0 C 0.367188 -0.0195312 0.269531 -0.0507812 0.1875 -0.09375 L 0.1875 -0.390625 C 0.269531 -0.359375 0.375 -0.328125 0.5 -0.296875 C 0.632812 -0.265625 0.769531 -0.25 0.90625 -0.25 C 1.09375 -0.25 1.234375 -0.285156 1.328125 -0.359375 C 1.429688 -0.429688 1.484375 -0.53125 1.484375 -0.65625 C 1.484375 -0.738281 1.460938 -0.804688 1.421875 -0.859375 C 1.390625 -0.921875 1.328125 -0.976562 1.234375 -1.03125 C 1.148438 -1.082031 1.03125 -1.132812 0.875 -1.1875 C 0.65625 -1.269531 0.488281 -1.367188 0.375 -1.484375 C 0.269531 -1.597656 0.21875 -1.753906 0.21875 -1.953125 C 0.21875 -2.085938 0.25 -2.203125 0.3125 -2.296875 C 0.382812 -2.398438 0.484375 -2.476562 0.609375 -2.53125 C 0.734375 -2.582031 0.878906 -2.609375 1.046875 -2.609375 C 1.179688 -2.609375 1.304688 -2.59375 1.421875 -2.5625 C 1.546875 -2.539062 1.65625 -2.507812 1.75 -2.46875 L 1.65625 -2.1875 C 1.5625 -2.226562 1.460938 -2.257812 1.359375 -2.28125 C 1.253906 -2.3125 1.144531 -2.328125 1.03125 -2.328125 C 0.875 -2.328125 0.753906 -2.289062 0.671875 -2.21875 C 0.585938 -2.15625 0.546875 -2.066406 0.546875 -1.953125 C 0.546875 -1.867188 0.5625 -1.796875 0.59375 -1.734375 C 0.632812 -1.679688 0.695312 -1.628906 0.78125 -1.578125 C 0.863281 -1.535156 0.972656 -1.488281 1.109375 -1.4375 C 1.253906 -1.375 1.378906 -1.3125 1.484375 -1.25 C 1.597656 -1.1875 1.679688 -1.109375 1.734375 -1.015625 C 1.785156 -0.929688 1.8125 -0.820312 1.8125 -0.6875 Z "/>
</g>
<g id="glyph-0-4">
<path d="M 0.625 -1.9375 C 0.625 -1.84375 0.617188 -1.753906 0.609375 -1.671875 L 0.625 -1.671875 C 0.6875 -1.765625 0.769531 -1.835938 0.875 -1.890625 C 0.988281 -1.941406 1.109375 -1.96875 1.234375 -1.96875 C 1.460938 -1.96875 1.632812 -1.910156 1.75 -1.796875 C 1.875 -1.679688 1.9375 -1.503906 1.9375 -1.265625 L 1.9375 0 L 1.625 0 L 1.625 -1.234375 C 1.625 -1.546875 1.476562 -1.703125 1.1875 -1.703125 C 0.96875 -1.703125 0.816406 -1.640625 0.734375 -1.515625 C 0.660156 -1.398438 0.625 -1.226562 0.625 -1 L 0.625 0 L 0.3125 0 L 0.3125 -2.75 L 0.625 -2.75 Z "/>
</g>
<g id="glyph-0-5">
<path d="M 1.984375 -0.96875 C 1.984375 -0.644531 1.898438 -0.394531 1.734375 -0.21875 C 1.578125 -0.0507812 1.363281 0.03125 1.09375 0.03125 C 0.914062 0.03125 0.757812 -0.00390625 0.625 -0.078125 C 0.488281 -0.160156 0.382812 -0.273438 0.3125 -0.421875 C 0.238281 -0.578125 0.203125 -0.757812 0.203125 -0.96875 C 0.203125 -1.289062 0.28125 -1.535156 0.4375 -1.703125 C 0.601562 -1.878906 0.820312 -1.96875 1.09375 -1.96875 C 1.269531 -1.96875 1.425781 -1.925781 1.5625 -1.84375 C 1.695312 -1.769531 1.800781 -1.660156 1.875 -1.515625 C 1.945312 -1.367188 1.984375 -1.1875 1.984375 -0.96875 Z M 0.53125 -0.96875 C 0.53125 -0.738281 0.570312 -0.554688 0.65625 -0.421875 C 0.75 -0.296875 0.894531 -0.234375 1.09375 -0.234375 C 1.289062 -0.234375 1.429688 -0.296875 1.515625 -0.421875 C 1.609375 -0.554688 1.65625 -0.738281 1.65625 -0.96875 C 1.65625 -1.195312 1.609375 -1.375 1.515625 -1.5 C 1.429688 -1.632812 1.289062 -1.703125 1.09375 -1.703125 C 0.894531 -1.703125 0.75 -1.632812 0.65625 -1.5 C 0.570312 -1.375 0.53125 -1.195312 0.53125 -0.96875 Z "/>
</g>
<g id="glyph-0-6">
<path d="M 1.203125 -1.96875 C 1.242188 -1.96875 1.285156 -1.960938 1.328125 -1.953125 C 1.367188 -1.953125 1.40625 -1.953125 1.4375 -1.953125 L 1.390625 -1.65625 C 1.359375 -1.664062 1.320312 -1.671875 1.28125 -1.671875 C 1.25 -1.679688 1.21875 -1.6875 1.1875 -1.6875 C 1.09375 -1.6875 1 -1.65625 0.90625 -1.59375 C 0.820312 -1.539062 0.753906 -1.46875 0.703125 -1.375 C 0.648438 -1.28125 0.625 -1.164062 0.625 -1.03125 L 0.625 0 L 0.3125 0 L 0.3125 -1.9375 L 0.5625 -1.9375 L 0.609375 -1.578125 L 0.625 -1.578125 C 0.6875 -1.679688 0.765625 -1.769531 0.859375 -1.84375 C 0.953125 -1.925781 1.066406 -1.96875 1.203125 -1.96875 Z "/>
</g>
<g id="glyph-0-7">
<path d="M 0.953125 -0.21875 C 1.003906 -0.21875 1.050781 -0.222656 1.09375 -0.234375 C 1.144531 -0.242188 1.1875 -0.253906 1.21875 -0.265625 L 1.21875 -0.015625 C 1.1875 -0.00390625 1.140625 0.00390625 1.078125 0.015625 C 1.015625 0.0234375 0.957031 0.03125 0.90625 0.03125 C 0.800781 0.03125 0.703125 0.015625 0.609375 -0.015625 C 0.523438 -0.046875 0.457031 -0.101562 0.40625 -0.1875 C 0.351562 -0.28125 0.328125 -0.40625 0.328125 -0.5625 L 0.328125 -1.6875 L 0.0625 -1.6875 L 0.0625 -1.84375 L 0.328125 -1.96875 L 0.46875 -2.375 L 0.65625 -2.375 L 0.65625 -1.9375 L 1.203125 -1.9375 L 1.203125 -1.6875 L 0.65625 -1.6875 L 0.65625 -0.5625 C 0.65625 -0.445312 0.679688 -0.359375 0.734375 -0.296875 C 0.785156 -0.242188 0.859375 -0.21875 0.953125 -0.21875 Z "/>
</g>
<g id="glyph-0-8">
<path d="M 3.3125 -2.578125 L 2.625 0 L 2.296875 0 L 1.796875 -1.6875 C 1.773438 -1.757812 1.753906 -1.828125 1.734375 -1.890625 C 1.710938 -1.960938 1.695312 -2.023438 1.6875 -2.078125 C 1.675781 -2.140625 1.664062 -2.179688 1.65625 -2.203125 C 1.65625 -2.171875 1.644531 -2.101562 1.625 -2 C 1.601562 -1.894531 1.578125 -1.785156 1.546875 -1.671875 L 1.046875 0 L 0.71875 0 L 0.046875 -2.578125 L 0.375 -2.578125 L 0.78125 -1 C 0.8125 -0.894531 0.835938 -0.789062 0.859375 -0.6875 C 0.878906 -0.582031 0.894531 -0.484375 0.90625 -0.390625 C 0.914062 -0.484375 0.929688 -0.582031 0.953125 -0.6875 C 0.984375 -0.800781 1.015625 -0.910156 1.046875 -1.015625 L 1.5 -2.578125 L 1.828125 -2.578125 L 2.3125 -1.015625 C 2.34375 -0.898438 2.367188 -0.785156 2.390625 -0.671875 C 2.410156 -0.566406 2.429688 -0.472656 2.453125 -0.390625 C 2.460938 -0.472656 2.476562 -0.566406 2.5 -0.671875 C 2.519531 -0.785156 2.546875 -0.894531 2.578125 -1 L 2.96875 -2.578125 Z "/>
</g>
<g id="glyph-0-9">
<path d="M 0.46875 -2.65625 C 0.519531 -2.65625 0.5625 -2.640625 0.59375 -2.609375 C 0.632812 -2.578125 0.65625 -2.523438 0.65625 -2.453125 C 0.65625 -2.390625 0.632812 -2.335938 0.59375 -2.296875 C 0.5625 -2.265625 0.519531 -2.25 0.46875 -2.25 C 0.414062 -2.25 0.367188 -2.265625 0.328125 -2.296875 C 0.296875 -2.335938 0.28125 -2.390625 0.28125 -2.453125 C 0.28125 -2.523438 0.296875 -2.578125 0.328125 -2.609375 C 0.367188 -2.640625 0.414062 -2.65625 0.46875 -2.65625 Z M 0.625 -1.9375 L 0.625 0 L 0.3125 0 L 0.3125 -1.9375 Z "/>
</g>
<g id="glyph-0-10">
<path d="M 1.234375 -1.96875 C 1.460938 -1.96875 1.632812 -1.910156 1.75 -1.796875 C 1.875 -1.691406 1.9375 -1.515625 1.9375 -1.265625 L 1.9375 0 L 1.625 0 L 1.625 -1.234375 C 1.625 -1.546875 1.476562 -1.703125 1.1875 -1.703125 C 0.976562 -1.703125 0.832031 -1.640625 0.75 -1.515625 C 0.664062 -1.398438 0.625 -1.226562 0.625 -1 L 0.625 0 L 0.3125 0 L 0.3125 -1.9375 L 0.5625 -1.9375 L 0.609375 -1.671875 L 0.625 -1.671875 C 0.6875 -1.773438 0.769531 -1.847656 0.875 -1.890625 C 0.988281 -1.941406 1.109375 -1.96875 1.234375 -1.96875 Z "/>
</g>
<g id="glyph-0-11">
<path d="M 1 0.03125 C 0.75 0.03125 0.550781 -0.0507812 0.40625 -0.21875 C 0.269531 -0.382812 0.203125 -0.632812 0.203125 -0.96875 C 0.203125 -1.300781 0.273438 -1.550781 0.421875 -1.71875 C 0.566406 -1.882812 0.757812 -1.96875 1 -1.96875 C 1.144531 -1.96875 1.265625 -1.941406 1.359375 -1.890625 C 1.453125 -1.835938 1.53125 -1.769531 1.59375 -1.6875 L 1.609375 -1.6875 C 1.609375 -1.71875 1.601562 -1.765625 1.59375 -1.828125 C 1.59375 -1.890625 1.59375 -1.9375 1.59375 -1.96875 L 1.59375 -2.75 L 1.90625 -2.75 L 1.90625 0 L 1.65625 0 L 1.609375 -0.265625 L 1.59375 -0.265625 C 1.539062 -0.179688 1.460938 -0.109375 1.359375 -0.046875 C 1.265625 0.00390625 1.144531 0.03125 1 0.03125 Z M 1.046875 -0.234375 C 1.242188 -0.234375 1.382812 -0.285156 1.46875 -0.390625 C 1.550781 -0.503906 1.59375 -0.675781 1.59375 -0.90625 L 1.59375 -0.953125 C 1.59375 -1.203125 1.550781 -1.390625 1.46875 -1.515625 C 1.394531 -1.640625 1.253906 -1.703125 1.046875 -1.703125 C 0.867188 -1.703125 0.738281 -1.632812 0.65625 -1.5 C 0.570312 -1.363281 0.53125 -1.179688 0.53125 -0.953125 C 0.53125 -0.722656 0.570312 -0.546875 0.65625 -0.421875 C 0.738281 -0.296875 0.867188 -0.234375 1.046875 -0.234375 Z "/>
</g>
<g id="glyph-0-12">
<path d="M 1.5625 -1.09375 C 1.53125 -1.1875 1.5 -1.28125 1.46875 -1.375 C 1.445312 -1.476562 1.429688 -1.554688 1.421875 -1.609375 L 1.40625 -1.609375 C 1.394531 -1.554688 1.378906 -1.476562 1.359375 -1.375 C 1.335938 -1.28125 1.3125 -1.1875 1.28125 -1.09375 L 0.9375 0 L 0.5625 0 L 0.046875 -1.9375 L 0.375 -1.9375 L 0.640625 -0.90625 C 0.660156 -0.800781 0.679688 -0.695312 0.703125 -0.59375 C 0.734375 -0.488281 0.753906 -0.398438 0.765625 -0.328125 L 0.78125 -0.328125 C 0.789062 -0.367188 0.800781 -0.414062 0.8125 -0.46875 C 0.820312 -0.53125 0.832031 -0.59375 0.84375 -0.65625 C 0.863281 -0.726562 0.882812 -0.789062 0.90625 -0.84375 L 1.25 -1.9375 L 1.59375 -1.9375 L 1.921875 -0.84375 C 1.953125 -0.757812 1.976562 -0.671875 2 -0.578125 C 2.03125 -0.484375 2.050781 -0.398438 2.0625 -0.328125 L 2.078125 -0.328125 C 2.078125 -0.390625 2.085938 -0.472656 2.109375 -0.578125 C 2.140625 -0.679688 2.171875 -0.789062 2.203125 -0.90625 L 2.46875 -1.9375 L 2.796875 -1.9375 L 2.265625 0 L 1.890625 0 Z "/>
</g>
</g>
</defs>
<g fill="rgb(100%, 52.54902%, 18.431373%)" fill-opacity="1">
<use xlink:href="#glyph-0-0" x="30" y="23.859375"/>
<use xlink:href="#glyph-0-1" x="32" y="23.859375"/>
<use xlink:href="#glyph-0-2" x="34" y="23.859375"/>
</g>
<g fill="rgb(100%, 52.54902%, 18.431373%)" fill-opacity="1">
<use xlink:href="#glyph-0-3" x="30" y="27.378906"/>
<use xlink:href="#glyph-0-4" x="32" y="27.378906"/>
<use xlink:href="#glyph-0-5" x="34" y="27.378906"/>
<use xlink:href="#glyph-0-6" x="36" y="27.378906"/>
<use xlink:href="#glyph-0-7" x="37" y="27.378906"/>
<use xlink:href="#glyph-0-2" x="38" y="27.378906"/>
</g>
<g fill="rgb(100%, 52.54902%, 18.431373%)" fill-opacity="1">
<use xlink:href="#glyph-0-8" x="30" y="30.902344"/>
<use xlink:href="#glyph-0-9" x="33" y="30.902344"/>
<use xlink:href="#glyph-0-10" x="34" y="30.902344"/>
<use xlink:href="#glyph-0-11" x="36" y="30.902344"/>
<use xlink:href="#glyph-0-5" x="38" y="30.902344"/>
<use xlink:href="#glyph-0-12" x="40" y="30.902344"/>
</g>
</svg>
