<?xml version="1.0" encoding="UTF-8"?>
<svg xmlns="http://www.w3.org/2000/svg" xmlns:xlink="http://www.w3.org/1999/xlink" width="854" height="480" viewBox="0 0 854 480">
<defs>
<g>
<g id="glyph-0-0">
<path d="M 4.296875 0 L 3.6875 0 L 3.6875 -2.21875 L 1.25 -2.21875 L 1.25 0 L 0.640625 0 L 0.640625 -4.765625 L 1.25 -4.765625 L 1.25 -2.75 L 3.6875 -2.75 L 3.6875 -4.765625 L 4.296875 -4.765625 Z "/>
</g>
<g id="glyph-0-1">
<path d="M 3.671875 -1.796875 C 3.671875 -1.203125 3.519531 -0.742188 3.21875 -0.421875 C 2.925781 -0.0976562 2.523438 0.0625 2.015625 0.0625 C 1.691406 0.0625 1.40625 -0.00390625 1.15625 -0.140625 C 0.914062 -0.285156 0.722656 -0.5 0.578125 -0.78125 C 0.429688 -1.0625 0.359375 -1.398438 0.359375 -1.796875 C 0.359375 -2.390625 0.507812 -2.84375 0.8125 -3.15625 C 1.113281 -3.476562 1.519531 -3.640625 2.03125 -3.640625 C 2.351562 -3.640625 2.632812 -3.566406 2.875 -3.421875 C 3.125 -3.273438 3.316406 -3.066406 3.453125 -2.796875 C 3.597656 -2.523438 3.671875 -2.191406 3.671875 -1.796875 Z M 0.96875 -1.796875 C 0.96875 -1.367188 1.050781 -1.03125 1.21875 -0.78125 C 1.382812 -0.539062 1.648438 -0.421875 2.015625 -0.421875 C 2.378906 -0.421875 2.644531 -0.539062 2.8125 -0.78125 C 2.976562 -1.03125 3.0625 -1.367188 3.0625 -1.796875 C 3.0625 -2.210938 2.976562 -2.539062 2.8125 -2.78125 C 2.644531 -3.03125 2.378906 -3.15625 2.015625 -3.15625 C 1.648438 -3.15625 1.382812 -3.03125 1.21875 -2.78125 C 1.050781 -2.539062 0.96875 -2.210938 0.96875 -1.796875 Z "/>
</g>
<g id="glyph-0-2">
<path d="M 2.875 -2.015625 C 2.8125 -2.203125 2.757812 -2.382812 2.71875 -2.5625 C 2.675781 -2.738281 2.644531 -2.875 2.625 -2.96875 L 2.609375 -2.96875 C 2.585938 -2.875 2.554688 -2.738281 2.515625 -2.5625 C 2.472656 -2.382812 2.421875 -2.203125 2.359375 -2.015625 L 1.71875 0 L 1.046875 0 L 0.078125 -3.578125 L 0.6875 -3.578125 L 1.171875 -1.671875 C 1.222656 -1.484375 1.269531 -1.289062 1.3125 -1.09375 C 1.351562 -0.894531 1.382812 -0.734375 1.40625 -0.609375 L 1.4375 -0.609375 C 1.457031 -0.679688 1.476562 -0.769531 1.5 -0.875 C 1.519531 -0.988281 1.546875 -1.109375 1.578125 -1.234375 C 1.609375 -1.359375 1.640625 -1.46875 1.671875 -1.5625 L 2.3125 -3.578125 L 2.953125 -3.578125 L 3.5625 -1.5625 C 3.613281 -1.414062 3.660156 -1.253906 3.703125 -1.078125 C 3.753906 -0.898438 3.785156 -0.742188 3.796875 -0.609375 L 3.828125 -0.609375 C 3.835938 -0.722656 3.863281 -0.878906 3.90625 -1.078125 C 3.957031 -1.273438 4.007812 -1.472656 4.0625 -1.671875 L 4.5625 -3.578125 L 5.171875 -3.578125 L 4.171875 0 L 3.484375 0 Z "/>
</g>
<g id="glyph-0-3">
</g>
<g id="glyph-0-4">
<path d="M 1.953125 -3.640625 C 2.253906 -3.640625 2.515625 -3.570312 2.734375 -3.4375 C 2.953125 -3.3125 3.117188 -3.125 3.234375 -2.875 C 3.359375 -2.632812 3.421875 -2.351562 3.421875 -2.03125 L 3.421875 -1.671875 L 0.96875 -1.671875 C 0.976562 -1.265625 1.082031 -0.957031 1.28125 -0.75 C 1.476562 -0.539062 1.753906 -0.4375 2.109375 -0.4375 C 2.335938 -0.4375 2.539062 -0.457031 2.71875 -0.5 C 2.894531 -0.539062 3.078125 -0.601562 3.265625 -0.6875 L 3.265625 -0.171875 C 3.078125 -0.0859375 2.894531 -0.03125 2.71875 0 C 2.539062 0.0390625 2.332031 0.0625 2.09375 0.0625 C 1.75 0.0625 1.445312 -0.00390625 1.1875 -0.140625 C 0.925781 -0.273438 0.722656 -0.476562 0.578125 -0.75 C 0.429688 -1.03125 0.359375 -1.367188 0.359375 -1.765625 C 0.359375 -2.148438 0.425781 -2.484375 0.5625 -2.765625 C 0.695312 -3.046875 0.878906 -3.257812 1.109375 -3.40625 C 1.347656 -3.5625 1.628906 -3.640625 1.953125 -3.640625 Z M 1.9375 -3.15625 C 1.65625 -3.15625 1.429688 -3.066406 1.265625 -2.890625 C 1.109375 -2.710938 1.015625 -2.460938 0.984375 -2.140625 L 2.8125 -2.140625 C 2.800781 -2.441406 2.726562 -2.6875 2.59375 -2.875 C 2.457031 -3.0625 2.238281 -3.15625 1.9375 -3.15625 Z "/>
</g>
<g id="glyph-0-5">
<path d="M 1.765625 -0.40625 C 1.847656 -0.40625 1.9375 -0.410156 2.03125 -0.421875 C 2.125 -0.441406 2.203125 -0.460938 2.265625 -0.484375 L 2.265625 -0.046875 C 2.203125 -0.015625 2.113281 0.0078125 2 0.03125 C 1.882812 0.0507812 1.769531 0.0625 1.65625 0.0625 C 1.46875 0.0625 1.296875 0.03125 1.140625 -0.03125 C 0.984375 -0.09375 0.851562 -0.203125 0.75 -0.359375 C 0.65625 -0.523438 0.609375 -0.753906 0.609375 -1.046875 L 0.609375 -3.125 L 0.109375 -3.125 L 0.109375 -3.40625 L 0.625 -3.640625 L 0.859375 -4.390625 L 1.203125 -4.390625 L 1.203125 -3.578125 L 2.234375 -3.578125 L 2.234375 -3.125 L 1.203125 -3.125 L 1.203125 -1.046875 C 1.203125 -0.835938 1.253906 -0.675781 1.359375 -0.5625 C 1.460938 -0.457031 1.597656 -0.40625 1.765625 -0.40625 Z "/>
</g>
<g id="glyph-0-6">
<path d="M 2.890625 -0.984375 C 2.890625 -0.640625 2.757812 -0.378906 2.5 -0.203125 C 2.25 -0.0234375 1.90625 0.0625 1.46875 0.0625 C 1.21875 0.0625 1 0.0390625 0.8125 0 C 0.632812 -0.03125 0.476562 -0.0820312 0.34375 -0.15625 L 0.34375 -0.6875 C 0.488281 -0.625 0.660156 -0.5625 0.859375 -0.5 C 1.066406 -0.4375 1.273438 -0.40625 1.484375 -0.40625 C 1.773438 -0.40625 1.988281 -0.453125 2.125 -0.546875 C 2.257812 -0.640625 2.328125 -0.769531 2.328125 -0.9375 C 2.328125 -1.019531 2.300781 -1.097656 2.25 -1.171875 C 2.207031 -1.242188 2.117188 -1.316406 1.984375 -1.390625 C 1.859375 -1.460938 1.679688 -1.539062 1.453125 -1.625 C 1.210938 -1.71875 1.007812 -1.804688 0.84375 -1.890625 C 0.6875 -1.984375 0.5625 -2.09375 0.46875 -2.21875 C 0.382812 -2.34375 0.34375 -2.503906 0.34375 -2.703125 C 0.34375 -3.003906 0.460938 -3.234375 0.703125 -3.390625 C 0.953125 -3.554688 1.28125 -3.640625 1.6875 -3.640625 C 1.90625 -3.640625 2.109375 -3.617188 2.296875 -3.578125 C 2.484375 -3.535156 2.660156 -3.476562 2.828125 -3.40625 L 2.625 -2.9375 C 2.46875 -3 2.304688 -3.050781 2.140625 -3.09375 C 1.984375 -3.132812 1.816406 -3.15625 1.640625 -3.15625 C 1.398438 -3.15625 1.21875 -3.113281 1.09375 -3.03125 C 0.96875 -2.957031 0.90625 -2.859375 0.90625 -2.734375 C 0.90625 -2.628906 0.929688 -2.539062 0.984375 -2.46875 C 1.046875 -2.40625 1.144531 -2.34375 1.28125 -2.28125 C 1.414062 -2.21875 1.597656 -2.140625 1.828125 -2.046875 C 2.046875 -1.960938 2.234375 -1.875 2.390625 -1.78125 C 2.554688 -1.695312 2.679688 -1.59375 2.765625 -1.46875 C 2.847656 -1.34375 2.890625 -1.179688 2.890625 -0.984375 Z "/>
</g>
<g id="glyph-0-7">
<path d="M 1.828125 0.0625 C 1.390625 0.0625 1.035156 -0.0859375 0.765625 -0.390625 C 0.492188 -0.703125 0.359375 -1.164062 0.359375 -1.78125 C 0.359375 -2.394531 0.492188 -2.859375 0.765625 -3.171875 C 1.035156 -3.484375 1.394531 -3.640625 1.84375 -3.640625 C 2.113281 -3.640625 2.335938 -3.585938 2.515625 -3.484375 C 2.691406 -3.390625 2.835938 -3.265625 2.953125 -3.109375 L 2.984375 -3.109375 C 2.984375 -3.171875 2.976562 -3.257812 2.96875 -3.375 C 2.957031 -3.488281 2.953125 -3.578125 2.953125 -3.640625 L 2.953125 -5.078125 L 3.53125 -5.078125 L 3.53125 0 L 3.0625 0 L 2.96875 -0.484375 L 2.953125 -0.484375 C 2.835938 -0.328125 2.691406 -0.195312 2.515625 -0.09375 C 2.335938 0.0078125 2.109375 0.0625 1.828125 0.0625 Z M 1.921875 -0.421875 C 2.304688 -0.421875 2.570312 -0.523438 2.71875 -0.734375 C 2.875 -0.941406 2.953125 -1.253906 2.953125 -1.671875 L 2.953125 -1.78125 C 2.953125 -2.21875 2.878906 -2.554688 2.734375 -2.796875 C 2.585938 -3.035156 2.316406 -3.15625 1.921875 -3.15625 C 1.609375 -3.15625 1.367188 -3.03125 1.203125 -2.78125 C 1.046875 -2.53125 0.96875 -2.191406 0.96875 -1.765625 C 0.96875 -1.335938 1.046875 -1.003906 1.203125 -0.765625 C 1.367188 -0.535156 1.609375 -0.421875 1.921875 -0.421875 Z "/>
</g>
<g id="glyph-0-8">
<path d="M 0.875 -4.921875 C 0.957031 -4.921875 1.03125 -4.890625 1.09375 -4.828125 C 1.164062 -4.765625 1.203125 -4.671875 1.203125 -4.546875 C 1.203125 -4.421875 1.164062 -4.328125 1.09375 -4.265625 C 1.03125 -4.203125 0.957031 -4.171875 0.875 -4.171875 C 0.769531 -4.171875 0.679688 -4.203125 0.609375 -4.265625 C 0.546875 -4.328125 0.515625 -4.421875 0.515625 -4.546875 C 0.515625 -4.671875 0.546875 -4.765625 0.609375 -4.828125 C 0.679688 -4.890625 0.769531 -4.921875 0.875 -4.921875 Z M 1.15625 -3.578125 L 1.15625 0 L 0.5625 0 L 0.5625 -3.578125 Z "/>
</g>
<g id="glyph-0-9">
<path d="M 2.21875 -3.125 L 1.3125 -3.125 L 1.3125 0 L 0.734375 0 L 0.734375 -3.125 L 0.09375 -3.125 L 0.09375 -3.390625 L 0.734375 -3.59375 L 0.734375 -3.796875 C 0.734375 -4.265625 0.832031 -4.597656 1.03125 -4.796875 C 1.238281 -5.003906 1.523438 -5.109375 1.890625 -5.109375 C 2.035156 -5.109375 2.164062 -5.09375 2.28125 -5.0625 C 2.394531 -5.039062 2.492188 -5.015625 2.578125 -4.984375 L 2.421875 -4.53125 C 2.359375 -4.550781 2.28125 -4.570312 2.1875 -4.59375 C 2.09375 -4.613281 1.992188 -4.625 1.890625 -4.625 C 1.691406 -4.625 1.546875 -4.554688 1.453125 -4.421875 C 1.359375 -4.296875 1.3125 -4.09375 1.3125 -3.8125 L 1.3125 -3.578125 L 2.21875 -3.578125 Z "/>
</g>
<g id="glyph-0-10">
<path d="M 1.921875 -3.640625 C 2.359375 -3.640625 2.679688 -3.539062 2.890625 -3.34375 C 3.097656 -3.15625 3.203125 -2.851562 3.203125 -2.4375 L 3.203125 0 L 2.78125 0 L 2.65625 -0.5 L 2.640625 -0.5 C 2.484375 -0.3125 2.316406 -0.171875 2.140625 -0.078125 C 1.972656 0.015625 1.738281 0.0625 1.4375 0.0625 C 1.113281 0.0625 0.84375 -0.0195312 0.625 -0.1875 C 0.414062 -0.363281 0.3125 -0.632812 0.3125 -1 C 0.3125 -1.351562 0.445312 -1.625 0.71875 -1.8125 C 1 -2.007812 1.429688 -2.117188 2.015625 -2.140625 L 2.625 -2.15625 L 2.625 -2.375 C 2.625 -2.664062 2.554688 -2.867188 2.421875 -2.984375 C 2.296875 -3.097656 2.117188 -3.15625 1.890625 -3.15625 C 1.703125 -3.15625 1.519531 -3.128906 1.34375 -3.078125 C 1.175781 -3.023438 1.019531 -2.960938 0.875 -2.890625 L 0.703125 -3.328125 C 0.859375 -3.410156 1.039062 -3.484375 1.25 -3.546875 C 1.46875 -3.609375 1.691406 -3.640625 1.921875 -3.640625 Z M 2.09375 -1.734375 C 1.644531 -1.710938 1.332031 -1.640625 1.15625 -1.515625 C 0.988281 -1.390625 0.90625 -1.210938 0.90625 -0.984375 C 0.90625 -0.785156 0.96875 -0.640625 1.09375 -0.546875 C 1.21875 -0.453125 1.375 -0.40625 1.5625 -0.40625 C 1.863281 -0.40625 2.113281 -0.488281 2.3125 -0.65625 C 2.519531 -0.820312 2.625 -1.078125 2.625 -1.421875 L 2.625 -1.75 Z "/>
</g>
<g id="glyph-0-11">
<path d="M 4.484375 -3.640625 C 4.890625 -3.640625 5.191406 -3.535156 5.390625 -3.328125 C 5.597656 -3.117188 5.703125 -2.785156 5.703125 -2.328125 L 5.703125 0 L 5.125 0 L 5.125 -2.296875 C 5.125 -2.867188 4.878906 -3.15625 4.390625 -3.15625 C 4.046875 -3.15625 3.796875 -3.050781 3.640625 -2.84375 C 3.492188 -2.644531 3.421875 -2.351562 3.421875 -1.96875 L 3.421875 0 L 2.84375 0 L 2.84375 -2.296875 C 2.84375 -2.867188 2.597656 -3.15625 2.109375 -3.15625 C 1.742188 -3.15625 1.492188 -3.039062 1.359375 -2.8125 C 1.222656 -2.59375 1.15625 -2.273438 1.15625 -1.859375 L 1.15625 0 L 0.5625 0 L 0.5625 -3.578125 L 1.046875 -3.578125 L 1.125 -3.09375 L 1.15625 -3.09375 C 1.269531 -3.28125 1.421875 -3.414062 1.609375 -3.5 C 1.796875 -3.59375 2 -3.640625 2.21875 -3.640625 C 2.78125 -3.640625 3.144531 -3.441406 3.3125 -3.046875 L 3.34375 -3.046875 C 3.457031 -3.242188 3.617188 -3.390625 3.828125 -3.484375 C 4.035156 -3.585938 4.253906 -3.640625 4.484375 -3.640625 Z "/>
</g>
<g id="glyph-0-12">
<path d="M 1.15625 -3.578125 C 1.15625 -3.398438 1.144531 -3.234375 1.125 -3.078125 L 1.15625 -3.078125 C 1.269531 -3.265625 1.425781 -3.40625 1.625 -3.5 C 1.820312 -3.59375 2.039062 -3.640625 2.28125 -3.640625 C 2.707031 -3.640625 3.03125 -3.535156 3.25 -3.328125 C 3.46875 -3.117188 3.578125 -2.785156 3.578125 -2.328125 L 3.578125 0 L 3 0 L 3 -2.28125 C 3 -2.863281 2.734375 -3.15625 2.203125 -3.15625 C 1.796875 -3.15625 1.519531 -3.039062 1.375 -2.8125 C 1.226562 -2.582031 1.15625 -2.257812 1.15625 -1.84375 L 1.15625 0 L 0.5625 0 L 0.5625 -5.078125 L 1.15625 -5.078125 Z "/>
</g>
<g id="glyph-0-13">
<path d="M 2 0.0625 C 1.6875 0.0625 1.40625 0 1.15625 -0.125 C 0.90625 -0.25 0.707031 -0.445312 0.5625 -0.71875 C 0.425781 -1 0.359375 -1.347656 0.359375 -1.765625 C 0.359375 -2.203125 0.429688 -2.554688 0.578125 -2.828125 C 0.734375 -3.109375 0.9375 -3.3125 1.1875 -3.4375 C 1.4375 -3.570312 1.722656 -3.640625 2.046875 -3.640625 C 2.222656 -3.640625 2.394531 -3.617188 2.5625 -3.578125 C 2.738281 -3.546875 2.878906 -3.503906 2.984375 -3.453125 L 2.796875 -2.96875 C 2.691406 -3 2.566406 -3.03125 2.421875 -3.0625 C 2.285156 -3.101562 2.15625 -3.125 2.03125 -3.125 C 1.320312 -3.125 0.96875 -2.675781 0.96875 -1.78125 C 0.96875 -1.34375 1.050781 -1.007812 1.21875 -0.78125 C 1.394531 -0.550781 1.65625 -0.4375 2 -0.4375 C 2.1875 -0.4375 2.351562 -0.457031 2.5 -0.5 C 2.65625 -0.539062 2.796875 -0.585938 2.921875 -0.640625 L 2.921875 -0.125 C 2.796875 -0.0625 2.660156 -0.015625 2.515625 0.015625 C 2.378906 0.046875 2.207031 0.0625 2 0.0625 Z "/>
</g>
<g id="glyph-0-14">
<path d="M 2.234375 -3.640625 C 2.296875 -3.640625 2.363281 -3.632812 2.4375 -3.625 C 2.519531 -3.625 2.59375 -3.617188 2.65625 -3.609375 L 2.578125 -3.0625 C 2.523438 -3.070312 2.460938 -3.082031 2.390625 -3.09375 C 2.316406 -3.101562 2.25 -3.109375 2.1875 -3.109375 C 2.007812 -3.109375 1.835938 -3.054688 1.671875 -2.953125 C 1.515625 -2.859375 1.390625 -2.71875 1.296875 -2.53125 C 1.203125 -2.351562 1.15625 -2.144531 1.15625 -1.90625 L 1.15625 0 L 0.5625 0 L 0.5625 -3.578125 L 1.046875 -3.578125 L 1.109375 -2.921875 L 1.140625 -2.921875 C 1.253906 -3.117188 1.398438 -3.285156 1.578125 -3.421875 C 1.765625 -3.566406 1.984375 -3.640625 2.234375 -3.640625 Z "/>
</g>
<g id="glyph-0-15">
<path d="M 1.15625 0 L 0.5625 0 L 0.5625 -5.078125 L 1.15625 -5.078125 Z "/>
</g>
</g>
</defs>
<g fill="rgb(53.333333%, 53.333333%, 53.333333%)" fill-opacity="1">
<use xlink:href="#glyph-0-0" x="30" y="27.126953"/>
<use xlink:href="#glyph-0-1" x="35" y="27.126953"/>
<use xlink:href="#glyph-0-2" x="39" y="27.126953"/>
<use xlink:href="#glyph-0-3" x="44" y="27.126953"/>
<use xlink:href="#glyph-0-2" x="46" y="27.126953"/>
<use xlink:href="#glyph-0-4" x="51" y="27.126953"/>
<use xlink:href="#glyph-0-3" x="55" y="27.126953"/>
<use xlink:href="#glyph-0-5" x="57" y="27.126953"/>
<use xlink:href="#glyph-0-4" x="59" y="27.126953"/>
<use xlink:href="#glyph-0-6" x="63" y="27.126953"/>
<use xlink:href="#glyph-0-5" x="66" y="27.126953"/>
<use xlink:href="#glyph-0-4" x="68" y="27.126953"/>
<use xlink:href="#glyph-0-7" x="72" y="27.126953"/>
<use xlink:href="#glyph-0-3" x="76" y="27.126953"/>
<use xlink:href="#glyph-0-8" x="78" y="27.126953"/>
<use xlink:href="#glyph-0-9" x="80" y="27.126953"/>
<use xlink:href="#glyph-0-3" x="82" y="27.126953"/>
<use xlink:href="#glyph-0-10" x="84" y="27.126953"/>
<use xlink:href="#glyph-0-3" x="88" y="27.126953"/>
<use xlink:href="#glyph-0-11" x="90" y="27.126953"/>
<use xlink:href="#glyph-0-10" x="96" y="27.126953"/>
<use xlink:href="#glyph-0-5" x="100" y="27.126953"/>
<use xlink:href="#glyph-0-12" x="102" y="27.126953"/>
<use xlink:href="#glyph-0-3" x="106" y="27.126953"/>
<use xlink:href="#glyph-0-6" x="108" y="27.126953"/>
<use xlink:href="#glyph-0-13" x="111" y="27.126953"/>
<use xlink:href="#glyph-0-1" x="114" y="27.126953"/>
<use xlink:href="#glyph-0-14" x="118" y="27.126953"/>
<use xlink:href="#glyph-0-4" x="121" y="27.126953"/>
<use xlink:href="#glyph-0-3" x="125" y="27.126953"/>
<use xlink:href="#glyph-0-8" x="127" y="27.126953"/>
<use xlink:href="#glyph-0-6" x="129" y="27.126953"/>
<use xlink:href="#glyph-0-3" x="132" y="27.126953"/>
<use xlink:href="#glyph-0-14" x="134" y="27.126953"/>
<use xlink:href="#glyph-0-4" x="137" y="27.126953"/>
<use xlink:href="#glyph-0-10" x="141" y="27.126953"/>
<use xlink:href="#glyph-0-15" x="145" y="27.126953"/>
</g>
</svg>
